<svg width="188" height="68" fill="none" xmlns="http://www.w3.org/2000/svg"><path fill-rule="evenodd" clip-rule="evenodd" d="M68.115 34c0 13.986-8.459 25.998-20.547 31.22-1.156.5-2.347.938-3.566 1.308A34.084 34.084 0 0 1 34.057 68c-1.923 0-3.807-.16-5.644-.466a33.742 33.742 0 0 1-7.6-2.2A34.179 34.179 0 0 1 6.923 54.55 33.809 33.809 0 0 1 0 34C0 15.221 15.247 0 34.057 0c18.809 0 34.058 15.222 34.058 34z" fill="#F9B004"/><path fill-rule="evenodd" clip-rule="evenodd" d="M13.658 48.249a.343.343 0 0 0 .242-.326c.004-.21.062-.475.127-.768.05-.225.101-.466.139-.723.148-.17.376-.309.737-.381.565 0 .482.216 1.093.028.019.06.039.116.057.168-.055.838.934.709.384 1.807-.117.354-.354.472-.59.825-.583.875-.259 1.744-2.124-.118-.126-.252-.117-.368-.065-.513z" fill="#35393F"/><path fill-rule="evenodd" clip-rule="evenodd" d="M63.017 23.582C46.734 21.947 40.12 26.84 33.713 36.438c-.92 1.237-1.75 2.588-2.885 3.796l-4.57-.864-1.068-.305.267-.733.005-.02 1.79-6.424.034-.124a.348.348 0 0 0-.256-.42l-1.023-.254c.046-1.394.267-1.827.582-3.185.15-.546.246-1.09.296-1.635v-.008c.14-1.574-.126-3.148-.65-4.722-.298-.743-1.036-2.406-1.423-3.49a17.179 17.179 0 0 1-.287-6.171c.823-.41 1.454-1.404 1.516-2.395.105-1.75-.921-2.35-2.461-2.503-.858-.087-.817-1.341-1.955-1.225-1.087.074-1.319 1.1-2.653 1.299-2.005.592-2.594 2.36-1.293 3.89 1.02 1.526 1.267 1.55.622 4.308-.226.975-.493 1.78-.776 2.445-.595 1.016-1.425 2.059-1.914 2.547-2.08 1.854-2.823 4.549-3.457 7.214l-3.606-.945a.349.349 0 0 0-.424.248c-1.418 5.403-2.715 10.67-4.318 15.937-.876.06-1.75.146-2.621.26C4.107 53.671 12.148 62.28 22.524 66.003c2.157.015 4.317-.14 6.374-.455a84.355 84.355 0 0 1-.495 1.985c1.836.307 3.72.466 5.644.466.956-1.66 1.823-3.272 2.459-4.79.42-.153.794-.232 1.06-.15.244.074 4.261 3.276 5.067 3.849a33.595 33.595 0 0 0 6.051-2.202 155.16 155.16 0 0 0-3.694-4.864c4.448-2.877 2.944-9.922 3.439-16.415.001-.017.001-.033.005-.05l8.906.876.864.163c1 2.4 1.154 2.735 2.958 2.5 2.51-.325 2.815-2.456 2.833-4.787.048-6.252-4.49-14.816-.977-18.548zM27.734 42.544a5.657 5.657 0 0 1-.198-.339l-1.094-1.552 2.166.306 1.23.216c-.603.509-1.293.971-2.104 1.369zm20.93-.52c.6-2.434 2.095-4.883 2.6-5.67 1.556 1.837 4.362 4.376 5.635 6.816-2.48-.008-5.786-.452-8.235-1.146z" fill="#12374A"/><path fill-rule="evenodd" clip-rule="evenodd" d="M24.524 11.29c1.214-.342 1.1-2.5.823-2.946-.228-.796-1.695-1.064-2.831-.346l.004 2.122c.782.103 2.003.097 2.005 1.17zM22.125 7.994c-1.168-.498-3.018-.912-3.978.24-.943 1.18.122 2.946.948 3.298 1.174-1.409.36-1.414 3.033-1.417l-.002-2.026-.002-.095zM24.223 54.972l1.274.87c.552.377.636.316.18.947-.23.318-.528.644-.741.927a10.827 10.827 0 0 0-1.652 3.3c-.185.552-.441.889-.657 1.29-.077.143-.154.5-.451.22-.053-.05-.085-.173-.19-.392-.196-.408-.483-.612-1.019-.455-.439.129-.4.106-.398-.322 0-.157.028-.309.054-.456a4.63 4.63 0 0 1 .702-1.739c.718-1.087.613-.598 1.094-2.039l.156-.467c.184-.367.505-1.158.83-1.638.35-.517.363-.357.818-.046z" fill="#FEFEFE"/><path fill-rule="evenodd" clip-rule="evenodd" d="M26.06 55.261a12.66 12.66 0 0 1-1.306-.744c-.517-.345-.592-.29-.233-.97.078-.147.167-.302.25-.45.396-.698.182-.664 1.104-.342.43.15.944.357 1.365.566.942.467.91.498.212 1.274-.11.12-.225.242-.337.357-.52.533-.406.626-1.056.31z" fill="#22A0B5"/><path fill-rule="evenodd" clip-rule="evenodd" d="M24.219 61.89c.55.348 1.777.978 1.789 1.356.012.378-1.74.429-2.18.247-.44-.18-.538-.574-.538-.574l.929-1.029z" fill="#FEFEFE"/><path fill-rule="evenodd" clip-rule="evenodd" d="m24.996 40.396-1.01 3.945c-.486 1.814-.334 1.346-.861 3.311 0 .125 1.625 1.934 1.94 2.563.472.943-.247 1.02.697 1.61 2.833 1.767 2.833 1.65 3.777.235 1.889-2.356.826-2.592-.826-5.656-.944-1.767-1.952-4.288-3.369-5.702a4.612 4.612 0 0 1-.348-.306zM17.76 29.041l7.422 1.826c.526-2.952 1.572-6.361.112-9.228-.52-1.021-1.23-1.861-1.493-1.926-.028 3.313-.727 6.912-.929 10.35-.005.079-.718-.164-.779-.124.983-5.015-.813-6.827-3.588-10.786-2.936 2.062-3.994 2.548-4.95 6.308-.367 1.443-.362 1.402 1.08 1.774 1.35.348 2.955.691 3.125 1.806z" fill="#22A0B5"/><path d="m26.522 31.933-9.022-2.24c-.605.677-1.032 4.107-1.202 7.693-.176 3.711-.06 7.544.432 8.68.03.073.062.128.09.161 1.041 1.187.62 1.788.286 2.235l4.754 1.25 4.662-17.779zM11.842 28.095l-3.134-.822-4.645 17.715 9.072 2.8c.025-.152.175-.616.211-.78.106-.483.23-1.043.15-1.655-.031-.231.008-.62-.13-.911-.223-.472-.47-.992-.477-1.645-.013-1.083-.381-2.192-.583-3.426-.746-4.556-.366-5.367.209-9.35.031-.221.048-.379.03-.382-.793-.113-.846-.636-.764-1.198.013-.098.032-.194.05-.287l.011-.059z" fill="#C4C4C4"/><path fill-rule="evenodd" clip-rule="evenodd" d="M13.197 30.16c-.374 2.397-.812 4.446-.526 6.927.206 1.797.857 7.023 1.76 8.374h1.417c-.327-1.728-.393-4.973-.244-8.108.111-2.347.35-4.65.697-6.24-1.028-.611-2-.679-3.104-.954z" fill="#F8DEAA"/><path fill-rule="evenodd" clip-rule="evenodd" d="M13.39 29.07c.632.16 1.251.412 1.836.617.284.099.56.187.825.249.794.184 1.28-.708.119-1.167-.193-.077-.39-.161-.589-.248-.672-.291-1.365-.605-2-.7-.944-.144-1.2.99-.191 1.248z" fill="#22A0B5"/><path fill-rule="evenodd" clip-rule="evenodd" d="M51.477 35.4c-5.37 4.805-3.753 10.945-4.171 17.19-.27 4.015-1.444 6.055-3.37 7.17-.715.722.413 1.66 1.682 3.236.679.843 1.447 1.78 2.176 2.662-1.157.499-2.348.937-3.567 1.307-1.162-.908-3.013-2.584-4.088-3.326-4.239-3.285-2.642-.18-7.993.594-1.98.33-4.393.032-6.18-2.306.423-.282 1.75-.783 2.326-1.71.795-1.278.777-1.257 1.255-2.828.18-.592.046-1.24.318-1.709.41-.705 1.27-1.206 1.762-2.105 2.044-3.727-.896-9.33-1.338-10.731 2.357-1.589 4.598-4.704 4.56-5.64-.004-.071 1.054-.166.729 2.18 2.517-2.812 2.461-5.556 2.894-7.018-.108.837 1.66 1.414 1.352 3.315 2.149-2.118 1.584-4.47 3.065-6.834.375 2.497.674 2.42.627 3.397 1.784-2.075 2.776-3.064 2.637-5.284 1.406 1.933 1.439 4.168 1.237 4.568.737-.337 3.113-3.564 3.291-6.339.644 2.146.158 4.022.08 4.022 1.195-.48 1.993-1.17 4.384-4.22-1.079 7.532-5.288 7.85-3.669 10.409zM56.557 26.826c.338-2.34 2.486-2.315 4.61-2.452-.36.348-1.683.985-2.529 1.734-1.1.973-.55 1.583-.02 1.137.593-.498 1.43.198.299.834-.993.559-2.55.058-2.36-1.253zM61.083 43.325c.09-.34.345-.572.726-.629.803-.159.868.2.902.794.027.467.125.635-.346.229-.132-.114-.145-.17-.173-.233-.156-.34-.392-.21-.398.11-.005.233.072.47.138.706.233.435.52.248.678.084.137-.14.243-.166.309.01.433 1.16-.202 1.529-1.45.153-.547-.534-.551-.606-.386-1.224zM59.866 45.808c-.532-.54-.411-1.354-.032-1.966.233-.375.702-.735.693.028-.004.345-.002.745-.03 1.117-.023.279-.061.541-.13.753-.133.399-.213.361-.501.068z" fill="#F8DEAA"/><path fill-rule="evenodd" clip-rule="evenodd" d="M55.997 32.123c-1.744-1.202-1.738-2.588-.133-2.36.186-.847.626-1.076 1.12-.905 1.32.456.975 1.739.527 2.773-.304.699-.791 1.137-1.514.492zM60.721 39.922c-.832-1.783-2.295-5.176-2.632-6.663-.194-.856.041-.53.382-1.194.078-.151.145-.32.2-.5.257-.841.187-.617 1.256-.693.48-.034.919-.01 1.504.282.513 1.214.198 2.533.033 3.807-.207 1.581.058 2.23.434 3.702.23.905.39 1.816-.035 2.141-.69.528-.936-.44-1.142-.882zM54.72 32.322c.966.666 1.264 1.062 1.636 2.174l1.386 3.481c.298.75 1.89 3.97 1.71 4.296-.425.766-1.112.079-1.41-.347-.702-1.004-1.662-2.871-2.376-3.82-4.101-.581-2.533-5.026-.946-5.785zM57.495 33.357c.221.39.388.868.586 1.421.26.727.474 1.501.718 2.27.146.456 1.482 3.362 1.92 4.513.126.333-.29.591-.488.255-.767-1.31-1.604-3.143-2.129-4.587-.361-.997-.675-2.115-1.08-2.974a3.563 3.563 0 0 0-.228-.414c-.303-.475.39-1.033.701-.485z" fill="#F8DEAA"/><path d="M60.719 34.371c.09-.206.168-1.011-.328-1.6-.6-.712-1.448-.527-1.409.589.011.317.103.641.26.926.42.762 1.002.888 1.477.085z" fill="#12374A"/><path fill-rule="evenodd" clip-rule="evenodd" d="M22.628 65.333c-.625.02-1.234.02-1.826.002A34.18 34.18 0 0 1 6.912 54.55a3.71 3.71 0 0 1 1.565-.43c.723-.04.75-.02 1.343.317.62.347 1.248.58 1.877.612 1.216.061.758-.5 1.144.95.476 1.791 1.508 4.14 2.544 5.004 1.404 1.171 2.525 1.066 3.989 1.293.276 1.386 2.047 1.733 2.512 1.685l.742 1.35zM16.058 46.038c-1.017.19-.696-.247-1.87.362-.105.537-.191.888-.301 1.24-.325 1.034-.57.795.228 1.509 1.085.825 1.047 1.126 1.66-.028l.461-.625c.506-.905.592-.975-.018-1.819l-.16-.639z" fill="#F8DEAA"/><path d="m47.93 41.815.734.21c-.113.454-.195.91-.23 1.353l-.815-.11c-3.46-.082-8.221-.698-11.714-1.159l-3.107-.41-2.96-.524c.358-.3.686-.616.99-.941l.084.017 5.212.98c4.119.597 7.63.634 11.806.584z" fill="#12374A"/><path fill-rule="evenodd" clip-rule="evenodd" d="M22.59 14.778c.102 0 .166.044.25.059.116-.02.227-.096.408-.04.247.073.502.227.702.365.038-.344.04-.743.028-1.124a222.344 222.344 0 0 1-.039-1.561c-.018.05-.04.1-.122.153-.078.04-.508.137-.637-.246-.041.011-.082.024-.124.039l-.047-.131c.391-.141.75-.091.927-.05.005-.113.064-.289-.52-.289-.605.06-.557.485-.425.997.057.226.094.4.116.577.088.705.162.812-.533.884-.434.043-.69-.22-.136-.223.612-.002.518.002.412-.607-.033-.19-.074-.385-.113-.583-.057-.296-.093-.584-.048-.806.1-.601.84-.472 1.154-.722.056-.044.161-.133.011-.33-.626-.924-1.376-.182-1.493-.064l-.199-.36c-.589.002-1.296-.117-1.534.12-.059.06-.454.692-.281.634.49-.164 1.336-.346 2.062.304-.452.627-.611-.437-2.133.24-.116 1.415-.352 2.357-.35 3.772.002 1.766-.79 3.05-.79 3.05.587.94 3.158 4.977 3.56 5.57.087-.658.868-5.82.654-7.092-1.002.112-2.397-.328-3.109-1.399.465.374.984.812 2.047.929.703.098 1.236-.4 1.524-1.058.044-.104.077-.228.103-.368-.233-.03-.507-.078-.667-.148-.094-.043-.29-.14-.389-.163-.096.019-.298.122-.394.165-.313.14-1.084.188-1.084.188s.563-.505 1.084-.662a.423.423 0 0 1 .126-.02zm-.518-2.45-.008-.001.006.005c-.048.08-.039.158-.2.245-.11.044-.713.153-.88-.294-.1.016-.2.042-.299.077l-.048-.131c.675-.24 1.46-.035 1.462-.035l-.033.135z" fill="#F8DEAA"/><path fill-rule="evenodd" clip-rule="evenodd" d="M23.469 15.595c-.39.361-1.157.24-1.345.002.539-.1.801-.204 1.345-.002z" fill="#12374A"/><path d="M72.678 52.086V43.03h4.243c1.972 0 3.046 1.33 3.046 2.919 0 1.575-1.088 2.918-3.046 2.918H74.61v3.218h-1.93zm37.887 0-.557-1.534h-3.889l-.571 1.534h-2.203l3.508-9.055h2.42l3.495 9.055h-2.203zm-2.502-7.127-1.414 3.896h2.829l-1.415-3.896zm-12.96 7.127v-1.561l4.284-5.797h-4.283v-1.697h6.812v1.548l-4.283 5.81h4.378v1.697h-6.907zm-8.88 0v-1.561l4.284-5.797h-4.284v-1.697h6.813v1.548l-4.283 5.81h4.378v1.697h-6.908zm-4.229 0V43.03h1.931v9.055h-1.931zm-3.999-6.136c0-.76-.57-1.222-1.333-1.222H74.61v2.444h2.053c.762 0 1.333-.476 1.333-1.222z" fill="#2F5D8E"/><path fill-rule="evenodd" clip-rule="evenodd" d="M103.723 35.902h4.282V16.433h-4.282v8.005h-7.245v-8.005h-4.283v19.469h4.283v-8.095h7.245v8.095zm-16.451-4.578-.098.064c-.436.3-1.014.531-1.516.692a8.876 8.876 0 0 1-2.11.407c-.155.01-.31.015-.467.015-1.708 0-3.202-.55-4.415-1.76-1.257-1.255-1.763-2.84-1.763-4.59 0-1.729.495-3.315 1.696-4.582 1.177-1.242 2.694-1.767 4.392-1.767.846 0 1.674.13 2.473.412.33.117.664.236.988.37.196.082.43.182.604.305l.113.075.734-3.89-.343-.163-.006-.003a4.53 4.53 0 0 0-.72-.28c-.355-.11-.719-.2-1.082-.274a13.775 13.775 0 0 0-2.731-.284c-2.853 0-5.38.891-7.45 2.866-2.067 1.972-2.981 4.403-2.981 7.246 0 2.855.743 5.524 2.913 7.48 2.132 1.922 4.784 2.632 7.609 2.632.977 0 1.933-.108 2.88-.352.375-.097.754-.198 1.123-.316.184-.058.41-.131.58-.225l.417-.238-.84-3.84zm69.689-3.08 2.825-7.741 2.824 7.74h-5.649zm-2.824 7.658.49-1.26 1.122-3.077h8.073l1.122 3.076.49 1.26h4.556l-7.982-19.468h-4.445l-7.982 19.469h4.556zm23.735-16.13h.793c1.216 0 2.681.219 3.454 1.27.377.514.517 1.129.517 1.757 0 2.402-1.737 3.179-3.91 3.179h-.854v-6.206zm-4.283 16.13h4.283v-7.159h.685l4.235 7.159H188l-4.959-7.768.798-.245c2.201-1.008 3.159-2.986 3.17-5.363.013-2.682-1.564-4.583-4.042-5.479-1.374-.497-3.002-.614-4.453-.614h-4.925v19.469zm-33.265-15.979h.733c.907 0 1.841.232 2.575.782 1.126.845 1.486 2.194 1.486 3.545 0 1.37-.458 2.684-1.671 3.433-.635.392-1.376.56-2.118.56h-1.005v-8.32zm-4.283 15.979h4.283v-4.32h1.096c1.868 0 3.838-.482 5.337-1.636 1.951-1.502 2.643-3.763 2.643-6.15 0-3.212-1.61-5.83-4.7-6.866-1.185-.398-2.613-.497-3.855-.497h-4.804v19.469zm-18.017-4.992c-1.202-1.336-1.697-2.976-1.697-4.758 0-1.756.505-3.388 1.698-4.698 1.152-1.265 2.607-1.893 4.319-1.893 1.722 0 3.171.635 4.344 1.89 1.219 1.303 1.73 2.933 1.73 4.701 0 1.807-.49 3.45-1.728 4.791-1.17 1.268-2.623 1.861-4.346 1.861-1.711 0-3.175-.621-4.32-1.894zm-2.814-11.977c-2.014 1.986-2.864 4.442-2.864 7.25 0 2.809.812 5.363 2.862 7.337 1.99 1.917 4.41 2.774 7.165 2.774 2.752 0 5.151-.877 7.135-2.803 2.049-1.99 2.891-4.477 2.891-7.308 0-2.82-.863-5.263-2.892-7.249-1.978-1.936-4.366-2.863-7.134-2.863-2.779 0-5.181.909-7.163 2.862z" fill="#2F5D8E"/></svg>